<svg width="135" height="29" viewBox="0 0 135 29" fill="none" xmlns="http://www.w3.org/2000/svg">
<mask id="mask0_2983_860" style="mask-type:alpha" maskUnits="userSpaceOnUse" x="0" y="0" width="135" height="29">
<rect width="134.734" height="28.4648" fill="#C4C4C4"/>
</mask>
<g mask="url(#mask0_2983_860)">
<path d="M56.1275 12.2419C55.1756 11.0997 53.9997 10.5286 52.5998 10.5286C51.9839 10.5286 51.41 10.6387 50.878 10.8588C50.3601 11.079 49.9121 11.3818 49.5342 11.7671C49.1562 12.1387 48.8552 12.5859 48.6312 13.1089C48.4213 13.6318 48.3163 14.196 48.3163 14.8015C48.3163 15.4208 48.4213 15.9919 48.6312 16.5148C48.8552 17.0378 49.1562 17.4919 49.5342 17.8772C49.9261 18.2626 50.3811 18.5653 50.899 18.7855C51.417 19.0057 51.9769 19.1158 52.5788 19.1158C53.8947 19.1158 55.0776 18.5653 56.1275 17.4644V22.2534L55.7075 22.3979C55.0776 22.6181 54.4896 22.7763 53.9437 22.8727C53.3978 22.9828 52.8588 23.0378 52.3269 23.0378C51.235 23.0378 50.1851 22.8383 49.1772 22.4392C48.1833 22.0263 47.3014 21.4552 46.5315 20.7259C45.7755 19.9827 45.1666 19.1089 44.7046 18.1043C44.2427 17.0859 44.0117 15.9781 44.0117 14.7809C44.0117 13.5836 44.2357 12.4896 44.6836 11.4987C45.1456 10.4942 45.7545 9.63406 46.5105 8.91846C47.2804 8.1891 48.1693 7.62487 49.1772 7.22579C50.1851 6.81294 51.242 6.60652 52.3479 6.60652C52.9778 6.60652 53.5937 6.67533 54.1957 6.81294C54.8116 6.9368 55.4555 7.13634 56.1275 7.41157V12.2419Z" fill="white"/>
<path d="M58.3741 12.0148H62.1747V13.7488C62.5806 13.1157 63.0776 12.6341 63.6655 12.3038C64.2535 11.9598 64.9394 11.7877 65.7233 11.7877C65.8213 11.7877 65.9263 11.7877 66.0383 11.7877C66.1643 11.7877 66.3043 11.8015 66.4582 11.829V15.4001C65.9543 15.1524 65.4084 15.0286 64.8204 15.0286C63.9385 15.0286 63.2736 15.2901 62.8256 15.813C62.3917 16.3222 62.1747 17.0722 62.1747 18.063V22.6043H58.3741V12.0148Z" fill="white"/>
<path d="M71.9559 12.0148V17.9804C71.9559 19.2878 72.5998 19.9415 73.8877 19.9415C75.1756 19.9415 75.8195 19.2878 75.8195 17.9804V12.0148H79.6201V18.7029C79.6201 20.1341 79.1372 21.2075 78.1713 21.9231C77.2194 22.6387 75.7915 22.9965 73.8877 22.9965C71.9839 22.9965 70.5491 22.6387 69.5832 21.9231C68.6313 21.2075 68.1553 20.1341 68.1553 18.7029V12.0148H71.9559Z" fill="white"/>
<path d="M89.341 14.7396C88.641 14.3818 87.9551 14.2029 87.2832 14.2029C86.9332 14.2029 86.6462 14.2717 86.4223 14.4093C86.2123 14.5469 86.1073 14.7327 86.1073 14.9667C86.1073 15.0905 86.1213 15.1937 86.1493 15.2763C86.1913 15.3451 86.2683 15.4139 86.3803 15.4827C86.5063 15.5515 86.6812 15.6135 86.9052 15.6685C87.1432 15.7235 87.4512 15.7924 87.8291 15.8749C88.879 16.0813 89.6629 16.4529 90.1809 16.9896C90.6988 17.5125 90.9578 18.1869 90.9578 19.0126C90.9578 19.6318 90.8318 20.1892 90.5798 20.6846C90.3279 21.18 89.9779 21.5997 89.5299 21.9438C89.082 22.274 88.5431 22.5286 87.9131 22.7075C87.2832 22.9002 86.5903 22.9965 85.8343 22.9965C84.3785 22.9965 82.9436 22.5906 81.5298 21.7786L82.9156 19.1364C83.9795 19.852 84.9874 20.2098 85.9393 20.2098C86.2893 20.2098 86.5763 20.1341 86.8002 19.9827C87.0242 19.8314 87.1362 19.6387 87.1362 19.4048C87.1362 19.2671 87.1152 19.1571 87.0732 19.0745C87.0452 18.9782 86.9752 18.8956 86.8632 18.8268C86.7512 18.7442 86.5833 18.6754 86.3593 18.6204C86.1493 18.5515 85.8693 18.4827 85.5194 18.4139C84.3435 18.18 83.5176 17.8359 83.0416 17.3818C82.5797 16.9139 82.3487 16.274 82.3487 15.4621C82.3487 14.8703 82.4607 14.3405 82.6847 13.8726C82.9086 13.391 83.2306 12.985 83.6506 12.6547C84.0705 12.3244 84.5745 12.0699 85.1624 11.891C85.7643 11.7121 86.4293 11.6226 87.1572 11.6226C88.3471 11.6226 89.502 11.8497 90.6218 12.3038L89.341 14.7396Z" fill="white"/>
<path d="M92.8852 5.47119H96.6858V13.3566C97.2037 12.7373 97.7287 12.3244 98.2606 12.118C98.7926 11.8978 99.4155 11.7877 100.129 11.7877C101.487 11.7877 102.509 12.1593 103.195 12.9024C103.895 13.6318 104.245 14.6226 104.245 15.8749V22.6043H100.444V17.258C100.444 16.7213 100.402 16.2878 100.318 15.9575C100.234 15.6272 100.094 15.3726 99.8985 15.1937C99.5625 14.9047 99.1565 14.7602 98.6806 14.7602C98.0366 14.7602 97.5397 14.9529 97.1897 15.3382C96.8538 15.7098 96.6858 16.2465 96.6858 16.9483V22.6043H92.8852V5.47119Z" fill="white"/>
<path d="M114.703 15.7717C114.577 15.2488 114.318 14.829 113.926 14.5125C113.534 14.196 113.058 14.0378 112.498 14.0378C111.911 14.0378 111.428 14.1891 111.05 14.4919C110.686 14.7946 110.455 15.2212 110.357 15.7717H114.703ZM110.252 17.9392C110.252 19.5493 111.022 20.3543 112.561 20.3543C113.387 20.3543 114.01 20.024 114.43 19.3635H118.105C117.363 21.7855 115.508 22.9965 112.54 22.9965C111.631 22.9965 110.798 22.8658 110.042 22.6043C109.286 22.3291 108.635 21.9438 108.089 21.4484C107.557 20.9529 107.144 20.3612 106.85 19.6731C106.556 18.985 106.409 18.2144 106.409 17.3612C106.409 16.4804 106.549 15.6891 106.829 14.9873C107.109 14.2717 107.508 13.6662 108.026 13.1708C108.544 12.6754 109.167 12.2969 109.895 12.0355C110.637 11.7602 111.47 11.6226 112.393 11.6226C113.303 11.6226 114.122 11.7602 114.85 12.0355C115.578 12.2969 116.194 12.6822 116.698 13.1914C117.202 13.7006 117.587 14.3267 117.853 15.0699C118.119 15.7992 118.252 16.6249 118.252 17.547V17.9392H110.252Z" fill="white"/>
<path d="M120.424 12.0148H124.225V13.7488C124.631 13.1157 125.128 12.6341 125.716 12.3038C126.304 11.9598 126.99 11.7877 127.774 11.7877C127.872 11.7877 127.977 11.7877 128.089 11.7877C128.215 11.7877 128.355 11.8015 128.509 11.829V15.4001C128.005 15.1524 127.459 15.0286 126.871 15.0286C125.989 15.0286 125.324 15.2901 124.876 15.813C124.442 16.3222 124.225 17.0722 124.225 18.063V22.6043H120.424V12.0148Z" fill="white"/>
<path d="M9.57405 8.75781C9.11008 8.75781 8.80078 9.06912 8.80078 9.53611V15.7626C8.80078 16.2295 9.11008 16.5409 9.57405 16.5409H11.1206V8.75781H9.57405Z" fill="white"/>
<path d="M11.1211 8.75635V16.5394L14.1806 15.7611V9.53464L11.1211 8.75635Z" fill="white"/>
<path d="M21.0909 21.2109H16.4512V27.5141H21.0909V21.2109Z" fill="white"/>
<path d="M27.1995 17.5512C27.0448 12.4144 24.029 8.75635 20.3173 8.75635H17.0695L14.9043 9.53464V15.7611L16.2189 17.0842C16.3736 17.2399 16.4509 17.3955 16.4509 17.629V20.4309H21.0906V17.4734C21.0906 17.3955 21.0906 17.2399 21.1679 17.162L21.6319 16.2281C21.7865 15.9168 22.0185 15.7611 22.3278 15.7611C24.029 15.8389 25.6529 16.4616 26.8902 17.7068C26.9675 17.9403 27.2768 17.7847 27.1995 17.5512Z" fill="white"/>
<rect x="3.79883" y="1.896" width="25.4527" height="25.618" rx="3" fill="url(#paint0_linear_2983_860)"/>
<rect x="3.79883" y="1.896" width="25.4527" height="25.618" rx="3" fill="#7661FF"/>
<path d="M8.05843 8.75781C7.59446 8.75781 7.28516 9.06912 7.28516 9.53611V15.7626C7.28516 16.2295 7.59446 16.5409 8.05843 16.5409H9.60501V8.75781H8.05843Z" fill="white"/>
<path d="M9.60352 8.75635V16.5394L12.663 15.7611V9.53464L9.60352 8.75635Z" fill="white"/>
<path d="M19.5757 20.6523H14.8594V27.5143H19.5757V20.6523Z" fill="white"/>
<path d="M25.6878 17.5512C25.5331 12.4144 22.5173 8.75635 18.8056 8.75635H15.5578L13.3926 9.53464V15.7611L14.7072 17.0842C14.8618 17.2399 14.9392 17.3955 14.9392 17.629V20.4309H19.5789V17.4734C19.5789 17.3955 19.5789 17.2399 19.6562 17.162L20.1201 16.2281C20.2748 15.9168 20.5068 15.7611 20.8161 15.7611C22.5173 15.8389 24.1412 16.4616 25.3785 17.7068C25.5434 17.9056 25.6878 17.7964 25.6878 17.5512Z" fill="white"/>
</g>
<defs>
<linearGradient id="paint0_linear_2983_860" x1="16.5252" y1="1.896" x2="16.5252" y2="27.514" gradientUnits="userSpaceOnUse">
<stop stop-color="#7B3FFF"/>
<stop offset="1" stop-color="#6D96FF"/>
</linearGradient>
</defs>
</svg>
